<svg width="383" height="81" viewBox="0 0 383 81" fill="none" xmlns="http://www.w3.org/2000/svg">
<path opacity="0.3" d="M382 37.2921C377.941 67.881 372.824 53.3643 371.941 48.0069L369.647 34.3542C367.529 21.9113 364.882 21.9113 363.647 34.527L361.706 56.1294C359.588 79.287 356.941 79.287 355.706 55.9565L353.765 18.4549C352.529 -4.70277 349.882 -4.87559 347.765 18.2821L345.471 44.2049C344.588 54.4012 341.941 54.574 339.471 44.5505L338.235 39.5388C336.824 33.6629 334.176 33.6629 332.412 39.366L330.471 45.5874C329.059 49.9079 326.588 49.9079 324.824 45.7602L322.176 39.366C321.118 36.6009 318.647 36.428 316.882 38.8475L314.588 41.9582C313.176 43.8592 311.059 43.8592 309.647 41.9582L308.588 40.5757C306.118 37.2921 303.647 37.8106 303.118 41.9582L301 56.8206C299.235 69.9548 296.588 69.9548 295 56.8206L292 31.0707C290.765 20.3559 288.118 20.1831 286 30.8978L285.647 32.9717C283.529 43.6864 280.882 43.5136 279.647 32.7989L277.706 15.3442C275.588 -2.97459 272.941 -2.97458 271.706 15.517L268.176 67.0169C266.941 84.2988 264.294 84.2988 262.176 67.1897L259.176 42.3039C258.647 38.1562 256.176 37.465 253.706 40.9213L253 41.7854C251.412 43.8592 249.294 43.6864 247.882 41.6126L247.176 40.5757C245.412 37.465 242.941 37.6378 241.706 41.0941L239.765 46.6243C237.647 52.8458 235 52.5002 233.941 46.1059L230.588 26.4046C229.176 18.2821 226.529 18.2821 224.588 26.2317L221.941 37.2921C220.882 41.7854 218.412 42.1311 216.294 37.9834L214.882 35.0455C213.471 31.9348 211 31.9348 209.412 35.0455L206.412 41.0941C205.176 43.5136 202.882 43.8592 201.294 41.6126L200.059 39.8844C197.941 37.1193 195.647 37.465 194.765 40.7485L193.353 46.1059C191.588 52.5002 188.941 52.5002 187.529 45.9331L184.706 32.9717C183.471 27.2687 180.824 27.0958 178.882 32.626L176.412 40.0572C175.353 42.9951 173.059 43.3408 171.118 40.7485L170.412 39.7116C168.294 36.9465 166 37.2921 165.118 40.5757L162.294 50.5992C160.353 57.3391 157.706 57.3391 156.471 50.4263L154.353 39.7116C152.588 30.2066 149.765 30.2066 148.353 39.8844L146.235 53.5371C144.471 65.6344 141.824 65.4616 140.235 53.5371L138.647 40.5757C136.706 24.8492 134.059 24.8492 132.647 40.7485L131.765 50.0807C130 69.9548 127.353 69.9548 125.765 50.0807L124 28.1328C122.235 6.53044 119.588 6.53044 118 28.1328L116.059 54.4012C114.294 78.5958 111.647 78.5958 110.059 54.4012L107.765 20.3559C106.176 -3.66586 103.529 -3.66586 101.765 20.3559L99.8235 46.1059C99.1176 55.6109 96.4706 55.7837 93.8235 46.6243L91.7059 38.8475C90.2941 33.6629 87.6471 33.6629 85.8824 38.6747L83.9412 44.3777C82.3529 48.871 79.8824 48.871 78.2941 44.3777L76.8824 40.2301C75.8235 37.2921 73.3529 36.9465 71.5882 39.5388L69.4706 42.3039C68.0588 44.2049 65.9412 44.2049 64.5294 42.3039L63.2941 40.5757C61 37.465 58.5294 37.9834 57.8235 41.7854L55 58.0304C52.8824 70.4733 50.2353 70.4733 49 57.8575L45.8235 22.0841C44.4118 6.70326 41.7647 6.70325 39.8235 21.9113L37.3529 42.3039C36.2941 50.772 33.6471 50.9448 31.3529 42.6495L29.5882 36.2552C28.3529 31.7619 25.8824 31.5891 23.9412 35.7368L22 40.2301C20.5882 43.168 18.2941 43.3408 16.5294 40.5757C14.7647 37.465 12.2941 37.6378 11.0588 41.0941L8.58824 48.1797C6.82353 53.5371 4 55.2653 1 40.4029" stroke="#393F65" stroke-width="2" stroke-miterlimit="10" stroke-linecap="round" stroke-linejoin="round"/>
<path d="M1 40.1455L4.88415 47.1923C7.17933 51.3231 9.65107 51.0801 10.7104 46.6253L13.0056 35.4477C15.1242 25.1612 17.7725 25.2422 19.0083 35.6097L20.9504 53.51C23.069 72.6252 25.7173 72.5442 26.9532 53.429L28.8953 22.4073C30.1311 3.21108 32.7794 3.21108 34.8981 22.3263L37.1932 43.7904C38.076 52.214 40.7243 52.376 43.196 44.1144L44.4319 39.9836C45.8443 35.2048 48.4926 35.1238 50.2581 39.8216L52.2002 45.0053C53.6126 48.5692 56.0843 48.6502 57.8499 45.1673L60.4981 39.8216C61.5575 37.5537 64.0292 37.3107 65.7947 39.3356L68.0899 41.9275C69.5023 43.4664 71.6209 43.4664 73.0334 41.9275L74.0927 40.7935C76.5644 38.0396 79.0361 38.5256 79.5658 41.8465L81.6844 54.077C83.45 64.8495 86.0982 64.8495 87.6872 53.996L90.6886 32.6939C91.9245 23.8652 94.5728 23.7842 96.6914 32.5319L97.0445 34.1518C99.1631 42.9804 101.811 42.8994 103.047 33.9898L104.989 19.5724C107.108 4.42604 109.756 4.42604 110.992 19.6534L114.523 62.2576C115.759 76.513 118.407 76.594 120.526 62.4196L123.527 41.9275C124.057 38.5256 126.529 37.9586 129 40.7935L129.707 41.5225C131.296 43.2234 133.414 43.1424 134.827 41.2795L135.533 40.3885C137.298 37.7966 139.77 37.9586 141.006 40.7935L142.948 45.4103C145.067 50.5131 147.715 50.3511 148.774 45.0053L152.129 28.725C153.541 22.0023 156.19 22.0023 158.132 28.563L160.25 37.7966C161.31 41.6035 163.781 41.7655 165.9 38.2826L167.312 35.8527C168.725 33.3418 171.196 33.3418 172.785 35.8527L175.787 40.8745C177.023 42.8994 179.318 43.0614 180.907 41.2795L182.143 39.9026C184.261 37.5537 186.557 37.9586 187.439 40.7125L188.852 45.0863C190.617 50.4321 193.266 50.3511 194.678 45.0053L197.503 34.3138C198.739 29.616 201.387 29.454 203.329 34.0708L205.801 40.2265C206.86 42.7374 209.155 42.9804 211.097 40.8745L211.804 39.9836C213.922 37.7156 216.217 38.0396 217.1 40.7935L219.925 49.1362C221.867 54.7249 224.515 54.6439 225.751 48.9742L227.87 40.0645C229.635 32.2079 232.46 32.2889 233.873 40.1455L235.991 51.4041C237.757 61.2857 240.405 61.2857 241.994 51.3231L243.583 40.5505C245.525 27.5101 248.173 27.5911 249.586 40.6315L250.468 48.4072C252.234 64.8495 254.882 64.8495 256.471 48.4072L258.237 30.345C260.002 12.4447 262.651 12.5257 264.24 30.345L266.182 52.0521C267.947 72.0582 270.595 72.0582 272.184 52.0521L274.48 23.9462C276.069 4.10205 278.717 4.02105 280.482 23.9462L282.424 45.1673C283.131 53.024 285.779 53.186 288.427 45.6533L290.546 39.1736C291.958 34.9618 294.607 34.8808 296.372 39.0116L298.491 43.4664C300.08 47.1923 302.551 47.1923 304.14 43.4664L305.553 40.0645C306.612 37.6347 309.084 37.3107 310.849 39.4166L312.968 41.7655C314.38 43.3044 316.499 43.3044 317.911 41.7655L319.147 40.3885C321.443 37.7156 323.914 38.2016 324.62 41.4415L327.445 54.8869C329.564 65.1735 332.212 65.0925 333.448 54.7249L336.626 25.1612C338.038 12.4447 340.687 12.4447 342.629 25.0802L345.101 41.8465C346.16 48.8932 348.808 49.0552 351.103 42.1705L352.869 36.8247C354.105 33.0988 356.576 32.9368 358.519 36.4197L360.461 40.0645C361.873 42.4944 364.168 42.5754 365.934 40.3075C367.699 37.7156 370.171 37.8776 371.407 40.7125L373.879 46.5443C375.644 50.9991 378.292 50.9181 379.705 46.3013L382 38.6876" stroke="#828282" stroke-width="2" stroke-miterlimit="10" stroke-linecap="round" stroke-linejoin="round"/>
</svg>
